<svg xmlns="http://www.w3.org/2000/svg" viewBox="0 0 1154 295" width="1154" height="295" style="background:#F7F4EF;system-ui,sans-serif">
  <defs>
    <marker id="arr" markerWidth="7" markerHeight="7" refX="7" refY="3.5" orient="auto">
      <polygon points="0 0, 7 3.5, 0 7" fill="#2C3440"/>
    </marker>
  </defs>
  <rect x="10" y="100" width="80" height="110" rx="5" ry="5" fill="#E8A838" stroke="#C8922A" stroke-width="1.5" stroke-dasharray="5,3"/>
  <text x="50" y="129" text-anchor="middle" font-size="9.5" font-weight="600" fill="#2C3440" font-family="system-ui,sans-serif">Data</text>
  <text x="50" y="141" text-anchor="middle" font-size="9.5" font-weight="600" fill="#2C3440" font-family="system-ui,sans-serif">Augmentation</text>
  <text x="50" y="155" text-anchor="middle" font-size="8" fill="#2C3440" font-family="system-ui,sans-serif">rot · flip</text>
  <text x="50" y="167" text-anchor="middle" font-size="8" fill="#2C3440" font-family="system-ui,sans-serif">shift · zoom</text>
  <text x="50" y="179" text-anchor="middle" font-size="7.5" font-style="italic" fill="#2C3440" font-family="system-ui,sans-serif">(train only)</text>
  <line x1="189" y1="36" x2="445" y2="36" stroke="#C8C8C8" stroke-width="1"/>
  <line x1="189" y1="33" x2="189" y2="39" stroke="#C8C8C8" stroke-width="1"/>
  <line x1="445" y1="33" x2="445" y2="39" stroke="#C8C8C8" stroke-width="1"/>
  <text x="317" y="26" text-anchor="middle" font-size="9.5" fill="#AAAAAA" font-family="system-ui,sans-serif" letter-spacing="0.8">BLOCK 1</text>
  <line x1="449" y1="36" x2="705" y2="36" stroke="#C8C8C8" stroke-width="1"/>
  <line x1="449" y1="33" x2="449" y2="39" stroke="#C8C8C8" stroke-width="1"/>
  <line x1="705" y1="33" x2="705" y2="39" stroke="#C8C8C8" stroke-width="1"/>
  <text x="577" y="26" text-anchor="middle" font-size="9.5" fill="#AAAAAA" font-family="system-ui,sans-serif" letter-spacing="0.8">BLOCK 2</text>
  <line x1="709" y1="36" x2="900" y2="36" stroke="#C8C8C8" stroke-width="1"/>
  <line x1="709" y1="33" x2="709" y2="39" stroke="#C8C8C8" stroke-width="1"/>
  <line x1="900" y1="33" x2="900" y2="39" stroke="#C8C8C8" stroke-width="1"/>
  <text x="804" y="26" text-anchor="middle" font-size="9.5" fill="#AAAAAA" font-family="system-ui,sans-serif" letter-spacing="0.8">BLOCK 3</text>
  <line x1="903" y1="36" x2="1137" y2="36" stroke="#C8C8C8" stroke-width="1"/>
  <line x1="903" y1="33" x2="903" y2="39" stroke="#C8C8C8" stroke-width="1"/>
  <line x1="1137" y1="33" x2="1137" y2="39" stroke="#C8C8C8" stroke-width="1"/>
  <text x="1020" y="26" text-anchor="middle" font-size="9.5" fill="#AAAAAA" font-family="system-ui,sans-serif" letter-spacing="0.8">CLASSIFIER</text>
  <line x1="90" y1="155" x2="99" y2="155" stroke="#2C3440" stroke-width="1.5" marker-end="url(#arr)"/>
  <line x1="176" y1="155" x2="181" y2="155" stroke="#2C3440" stroke-width="1.5" marker-end="url(#arr)"/>
  <line x1="252" y1="155" x2="257" y2="155" stroke="#2C3440" stroke-width="1.5" marker-end="url(#arr)"/>
  <line x1="282" y1="155" x2="287" y2="155" stroke="#2C3440" stroke-width="1.5" marker-end="url(#arr)"/>
  <line x1="348" y1="155" x2="353" y2="155" stroke="#2C3440" stroke-width="1.5" marker-end="url(#arr)"/>
  <line x1="408" y1="155" x2="413" y2="155" stroke="#2C3440" stroke-width="1.5" marker-end="url(#arr)"/>
  <line x1="442" y1="155" x2="447" y2="155" stroke="#2C3440" stroke-width="1.5" marker-end="url(#arr)"/>
  <line x1="512" y1="155" x2="517" y2="155" stroke="#2C3440" stroke-width="1.5" marker-end="url(#arr)"/>
  <line x1="542" y1="155" x2="547" y2="155" stroke="#2C3440" stroke-width="1.5" marker-end="url(#arr)"/>
  <line x1="608" y1="155" x2="613" y2="155" stroke="#2C3440" stroke-width="1.5" marker-end="url(#arr)"/>
  <line x1="662" y1="155" x2="667" y2="155" stroke="#2C3440" stroke-width="1.5" marker-end="url(#arr)"/>
  <line x1="702" y1="155" x2="707" y2="155" stroke="#2C3440" stroke-width="1.5" marker-end="url(#arr)"/>
  <line x1="772" y1="155" x2="777" y2="155" stroke="#2C3440" stroke-width="1.5" marker-end="url(#arr)"/>
  <line x1="802" y1="155" x2="807" y2="155" stroke="#2C3440" stroke-width="1.5" marker-end="url(#arr)"/>
  <line x1="856" y1="155" x2="861" y2="155" stroke="#2C3440" stroke-width="1.5" marker-end="url(#arr)"/>
  <line x1="896" y1="155" x2="901" y2="155" stroke="#2C3440" stroke-width="1.5" marker-end="url(#arr)"/>
  <line x1="950" y1="155" x2="955" y2="155" stroke="#2C3440" stroke-width="1.5" marker-end="url(#arr)"/>
  <line x1="1020" y1="155" x2="1025" y2="155" stroke="#2C3440" stroke-width="1.5" marker-end="url(#arr)"/>
  <line x1="1066" y1="155" x2="1071" y2="155" stroke="#2C3440" stroke-width="1.5" marker-end="url(#arr)"/>
  <line x1="90" y1="155" x2="117" y2="155" stroke="#2C3440" stroke-width="1.5" marker-end="url(#arr)"/>
  <rect x="118" y="133" width="58" height="44" rx="4" ry="4" fill="#2C3440"/>
  <text x="147" y="156" text-anchor="middle" font-size="9.5" font-weight="600" fill="#F7F4EF" font-family="system-ui,sans-serif">Input</text>
  <text x="147" y="163" text-anchor="middle" font-size="8" fill="#F7F4EF" opacity="0.85" font-family="system-ui,sans-serif">64×64×3</text>
  <rect x="192" y="116" width="60" height="78" rx="4" ry="4" fill="#1A6B7C"/>
  <text x="222" y="156" text-anchor="middle" font-size="9.5" font-weight="600" fill="#F7F4EF" font-family="system-ui,sans-serif">Conv2D</text>
  <text x="222" y="163" text-anchor="middle" font-size="8" fill="#F7F4EF" opacity="0.85" font-family="system-ui,sans-serif">32 · 3×3</text>
  <rect x="258" y="131" width="24" height="48" rx="4" ry="4" fill="#4E9E78"/>
  <text x="270" y="159" text-anchor="middle" font-size="9.5" font-weight="600" fill="#F7F4EF" font-family="system-ui,sans-serif">BN</text>
  <rect x="288" y="116" width="60" height="78" rx="4" ry="4" fill="#1A6B7C"/>
  <text x="318" y="156" text-anchor="middle" font-size="9.5" font-weight="600" fill="#F7F4EF" font-family="system-ui,sans-serif">Conv2D</text>
  <text x="318" y="163" text-anchor="middle" font-size="8" fill="#F7F4EF" opacity="0.85" font-family="system-ui,sans-serif">32 · 3×3</text>
  <rect x="354" y="129" width="48" height="52" rx="4" ry="4" fill="#E8A838"/>
  <text x="378" y="156" text-anchor="middle" font-size="9.5" font-weight="600" fill="#2C3440" font-family="system-ui,sans-serif">MaxPool</text>
  <text x="378" y="163" text-anchor="middle" font-size="8" fill="#2C3440" opacity="0.85" font-family="system-ui,sans-serif">2×2</text>
  <rect x="408" y="137" width="34" height="36" rx="4" ry="4" fill="#8BB8A4"/>
  <text x="425" y="156" text-anchor="middle" font-size="9.5" font-weight="600" fill="#2C3440" font-family="system-ui,sans-serif">Drop</text>
  <text x="425" y="163" text-anchor="middle" font-size="8" fill="#2C3440" opacity="0.85" font-family="system-ui,sans-serif">.25</text>
  <rect x="452" y="106" width="60" height="98" rx="4" ry="4" fill="#1A6B7C"/>
  <text x="482" y="156" text-anchor="middle" font-size="9.5" font-weight="600" fill="#F7F4EF" font-family="system-ui,sans-serif">Conv2D</text>
  <text x="482" y="163" text-anchor="middle" font-size="8" fill="#F7F4EF" opacity="0.85" font-family="system-ui,sans-serif">64 · 3×3</text>
  <rect x="518" y="126" width="24" height="58" rx="4" ry="4" fill="#4E9E78"/>
  <text x="530" y="159" text-anchor="middle" font-size="9.5" font-weight="600" fill="#F7F4EF" font-family="system-ui,sans-serif">BN</text>
  <rect x="548" y="106" width="60" height="98" rx="4" ry="4" fill="#1A6B7C"/>
  <text x="578" y="156" text-anchor="middle" font-size="9.5" font-weight="600" fill="#F7F4EF" font-family="system-ui,sans-serif">Conv2D</text>
  <text x="578" y="163" text-anchor="middle" font-size="8" fill="#F7F4EF" opacity="0.85" font-family="system-ui,sans-serif">64 · 3×3</text>
  <rect x="614" y="124" width="48" height="62" rx="4" ry="4" fill="#E8A838"/>
  <text x="638" y="156" text-anchor="middle" font-size="9.5" font-weight="600" fill="#2C3440" font-family="system-ui,sans-serif">MaxPool</text>
  <text x="638" y="163" text-anchor="middle" font-size="8" fill="#2C3440" opacity="0.85" font-family="system-ui,sans-serif">2×2</text>
  <rect x="668" y="137" width="34" height="36" rx="4" ry="4" fill="#8BB8A4"/>
  <text x="685" y="156" text-anchor="middle" font-size="9.5" font-weight="600" fill="#2C3440" font-family="system-ui,sans-serif">Drop</text>
  <text x="685" y="163" text-anchor="middle" font-size="8" fill="#2C3440" opacity="0.85" font-family="system-ui,sans-serif">.25</text>
  <rect x="712" y="96" width="60" height="118" rx="4" ry="4" fill="#1A6B7C"/>
  <text x="742" y="156" text-anchor="middle" font-size="9.5" font-weight="600" fill="#F7F4EF" font-family="system-ui,sans-serif">Conv2D</text>
  <text x="742" y="163" text-anchor="middle" font-size="8" fill="#F7F4EF" opacity="0.85" font-family="system-ui,sans-serif">128 · 3×3</text>
  <rect x="778" y="121" width="24" height="68" rx="4" ry="4" fill="#4E9E78"/>
  <text x="790" y="159" text-anchor="middle" font-size="9.5" font-weight="600" fill="#F7F4EF" font-family="system-ui,sans-serif">BN</text>
  <rect x="808" y="119" width="48" height="72" rx="4" ry="4" fill="#E8A838"/>
  <text x="832" y="156" text-anchor="middle" font-size="9.5" font-weight="600" fill="#2C3440" font-family="system-ui,sans-serif">MaxPool</text>
  <text x="832" y="163" text-anchor="middle" font-size="8" fill="#2C3440" opacity="0.85" font-family="system-ui,sans-serif">2×2</text>
  <rect x="862" y="137" width="34" height="36" rx="4" ry="4" fill="#8BB8A4"/>
  <text x="879" y="156" text-anchor="middle" font-size="9.5" font-weight="600" fill="#2C3440" font-family="system-ui,sans-serif">Drop</text>
  <text x="879" y="163" text-anchor="middle" font-size="8" fill="#2C3440" opacity="0.85" font-family="system-ui,sans-serif">.25</text>
  <rect x="906" y="133" width="44" height="44" rx="4" ry="4" fill="#2C3440"/>
  <text x="928" y="156" text-anchor="middle" font-size="9.5" font-weight="600" fill="#F7F4EF" font-family="system-ui,sans-serif">GAP</text>
  <text x="928" y="163" text-anchor="middle" font-size="8" fill="#F7F4EF" opacity="0.85" font-family="system-ui,sans-serif">128</text>
  <rect x="960" y="110" width="60" height="90" rx="4" ry="4" fill="#4E9E78"/>
  <text x="990" y="156" text-anchor="middle" font-size="9.5" font-weight="600" fill="#F7F4EF" font-family="system-ui,sans-serif">Dense</text>
  <text x="990" y="163" text-anchor="middle" font-size="8" fill="#F7F4EF" opacity="0.85" font-family="system-ui,sans-serif">256·ReLU</text>
  <rect x="1026" y="128" width="40" height="54" rx="4" ry="4" fill="#8BB8A4"/>
  <text x="1046" y="156" text-anchor="middle" font-size="9.5" font-weight="600" fill="#2C3440" font-family="system-ui,sans-serif">Drop</text>
  <text x="1046" y="163" text-anchor="middle" font-size="8" fill="#2C3440" opacity="0.85" font-family="system-ui,sans-serif">0.5</text>
  <rect x="1074" y="133" width="60" height="44" rx="4" ry="4" fill="#D95F4B"/>
  <text x="1104" y="156" text-anchor="middle" font-size="9.5" font-weight="600" fill="#F7F4EF" font-family="system-ui,sans-serif">Dense</text>
  <text x="1104" y="163" text-anchor="middle" font-size="8" fill="#F7F4EF" opacity="0.85" font-family="system-ui,sans-serif">1·Sigmoid</text>
  <text x="378" y="210" text-anchor="middle" font-size="8.5" fill="#999999" font-family="system-ui,sans-serif">32×32×32</text>
  <text x="578" y="225" text-anchor="middle" font-size="8.5" fill="#999999" font-family="system-ui,sans-serif">16×16×64</text>
  <text x="790" y="218" text-anchor="middle" font-size="8.5" fill="#999999" font-family="system-ui,sans-serif">8×8×128</text>
  <rect x="903" y="222" width="234" height="32" rx="5" ry="5" fill="#fef8ec" stroke="#E8A838" stroke-width="1.2"/>
  <text x="1020" y="234" text-anchor="middle" font-size="8.5" font-weight="600" fill="#b87e1a" font-family="system-ui,sans-serif">Training: Class Weights</text>
  <text x="1020" y="247" text-anchor="middle" font-size="8" fill="#b87e1a" font-family="system-ui,sans-serif">Uninfected ×1.0  ·  Parasitized ×2.0</text>
</svg>
